<svg width="133" height="85" viewBox="0 0 133 85" fill="none" xmlns="http://www.w3.org/2000/svg">
<path d="M25.2812 59H4.21875V56.7812C4.84375 56.7396 5.8125 56.6562 7.125 56.5312C8.45833 56.3854 9.375 56.2396 9.875 56.0938C10.5208 55.8854 11.0104 55.5521 11.3438 55.0938C11.6979 54.6146 11.875 53.9062 11.875 52.9688V31.0312H4.09375V28.4062H5.8125C8.0625 28.4062 10.0729 27.9896 11.8438 27.1562C13.6354 26.3229 14.9167 25.4271 15.6875 24.4688H18.2812C18.2188 25.8229 18.1562 27.4062 18.0938 29.2188C18.0312 31.0312 18 32.6562 18 34.0938V52.625C18 53.3542 18.1562 54.0104 18.4688 54.5938C18.8021 55.1562 19.2708 55.5729 19.875 55.8438C20.4167 56.0729 21.3021 56.2812 22.5312 56.4688C23.7604 56.6562 24.6771 56.7604 25.2812 56.7812V59ZM60.5 42.875C60.5 46.5 59.9271 49.9167 58.7812 53.125C57.6354 56.3125 55.9896 59.1146 53.8438 61.5312C51.7396 63.9062 49.1667 65.875 46.125 67.4375C43.1042 69.0208 39.7188 70.0625 35.9688 70.5625L35.4062 67.75L38.2188 67.25C42.6979 65.8333 46.1979 63.6562 48.7188 60.7188C51.2396 57.7812 52.8646 54.0521 53.5938 49.5312C51.8854 50.9896 50.1771 52.0625 48.4688 52.75C46.7812 53.4167 44.875 53.75 42.75 53.75C39.3542 53.75 36.3958 52.4271 33.875 49.7812C31.375 47.1354 30.125 43.8021 30.125 39.7812C30.125 35.4688 31.5729 31.8333 34.4688 28.875C37.3854 25.9167 40.9792 24.4375 45.25 24.4375C49.8958 24.4375 53.5938 26.0938 56.3438 29.4062C59.1146 32.7188 60.5 37.2083 60.5 42.875ZM53.875 42.5C53.875 37.625 53.0729 33.8125 51.4688 31.0625C49.8854 28.2917 47.7917 26.9062 45.1875 26.9062C42.7083 26.9062 40.7083 27.9792 39.1875 30.125C37.6667 32.25 36.9062 35.1875 36.9062 38.9375C36.9062 42.3125 37.6771 45.0208 39.2188 47.0625C40.7812 49.1042 42.8646 50.125 45.4688 50.125C47.0938 50.125 48.5833 49.8333 49.9375 49.25C51.2917 48.6458 52.5521 47.6875 53.7188 46.375C53.7188 46.2917 53.7292 46.125 53.75 45.875C53.7917 45.625 53.8125 45.2708 53.8125 44.8125C53.8125 44.5208 53.8229 44.1667 53.8438 43.75C53.8646 43.3333 53.875 42.9167 53.875 42.5ZM95.9062 27.5L73.625 70.4062H69.7188L90.6875 30.7188H78.4062C76.5938 30.7188 75.1771 30.7396 74.1562 30.7812C73.1354 30.8229 72.1979 31.0208 71.3438 31.375C70.6979 31.6458 70.1146 32.3438 69.5938 33.4688C69.0938 34.5729 68.7083 35.9896 68.4375 37.7188H66.5312V25.4688H95.9062V27.5ZM129.531 44.5938C129.531 46.7604 129.135 48.7917 128.344 50.6875C127.573 52.5833 126.531 54.1979 125.219 55.5312C123.698 57.0521 122.01 58.1771 120.156 58.9062C118.323 59.6354 116.406 60 114.406 60C112.094 60 110 59.5729 108.125 58.7188C106.25 57.8646 104.656 56.6562 103.344 55.0938C102.01 53.5104 100.979 51.5729 100.25 49.2812C99.5208 46.9896 99.1562 44.4167 99.1562 41.5625C99.1562 34.125 101.365 27.8542 105.781 22.75C110.219 17.6458 116.156 14.5833 123.594 13.5625L124.156 16.375L121.344 16.875C116.823 18.3333 113.323 20.6042 110.844 23.6875C108.385 26.7708 106.792 30.5104 106.062 34.9062C107.854 33.3438 109.625 32.2396 111.375 31.5938C113.125 30.9479 114.969 30.625 116.906 30.625C120.385 30.625 123.354 31.9583 125.812 34.625C128.292 37.2917 129.531 40.6146 129.531 44.5938ZM122.75 45.4375C122.75 42.0625 121.969 39.3542 120.406 37.3125C118.865 35.2708 116.792 34.25 114.188 34.25C112.625 34.25 111.167 34.5417 109.812 35.125C108.479 35.7083 107.188 36.6875 105.938 38.0625C105.917 38.3125 105.885 38.8958 105.844 39.8125C105.802 40.7083 105.781 41.4167 105.781 41.9375C105.781 46.8125 106.573 50.6354 108.156 53.4062C109.76 56.1562 111.865 57.5312 114.469 57.5312C116.948 57.5312 118.948 56.4583 120.469 54.3125C121.99 52.1458 122.75 49.1875 122.75 45.4375Z" fill="white"/>
</svg>
